<svg xmlns="http://www.w3.org/2000/svg" xmlns:xlink="http://www.w3.org/1999/xlink" xmlns:lucid="lucid" width="2420.3" height="2116.45"><g transform="translate(406.68966829989625 337.1986948261106)" lucid:page-tab-id="0_0"><path d="M-500-500h2500v2500H-500z" fill="#f2f3f5"/><path d="M771.26-111.9c0 112.57-100.2 203.8-223.78 203.8-123.6 0-223.8-91.23-223.8-203.8 0-112.55 100.2-203.8 223.8-203.8 123.6 0 223.78 91.25 223.78 203.8z" stroke="#3a414a" stroke-width="3" fill="#fff"/><path d="M476-230.25a6 6 0 0 1 6-6h130.96a6 6 0 0 1 6 6v78a6 6 0 0 1-6 6H482a6 6 0 0 1-6-6z" fill="none"/><use xlink:href="#a" transform="matrix(1,0,0,1,480.99100195114084,-231.25172330983162) translate(0 53.833333333333336)"/><path d="M505.44-86.4a6 6 0 0 1 6-6h72.08a6 6 0 0 1 6 6v78.02a6 6 0 0 1-6 6h-72.08a6 6 0 0 1-6-6z" fill="none"/><use xlink:href="#b" transform="matrix(1,0,0,1,510.43544639558525,-87.3890269333761) translate(0 53.833333333333336)"/><path d="M414.72 59.33L244.34 307.08" stroke="#000" stroke-width="9" fill="none"/><path d="M414.9 54.1l6.18 3.94-2.7 3.94-7.43-5.1 2.56-3.73zM248.12 309.54l-2.1 3.03-7.77-3.27-.7-.27 3.15-4.6z" stroke="#000" stroke-width=".05"/><path d="M363.65 487.06c0 105.94-93.03 191.8-207.8 191.8-114.76 0-207.8-85.86-207.8-191.8 0-105.94 93.04-191.82 207.8-191.82 114.77 0 207.8 85.88 207.8 191.82z" stroke="#3a414a" stroke-width="3" fill="#fff"/><path d="M101.9 448.05a6 6 0 0 1 6-6h95.9a6 6 0 0 1 6 6v94a6 6 0 0 1-6 6h-95.9a6 6 0 0 1-6-6z" fill="none"/><use xlink:href="#c" transform="matrix(1,0,0,1,106.9027432666559,447.0529445829028) translate(0 64.5)"/><path d="M927.56 283.97L701.93 43.45M927.48 283.88l3.15 3.37" stroke="#000" stroke-width="9" fill="none"/><path d="M705.3 40.45l-6.57 6.16-3.42-3.63 3.55-2.8 3.4-2.95z" stroke="#000" stroke-width=".05"/><path d="M1162.9 435.1c0 105.94-87.68 191.82-195.82 191.82-108.15 0-195.82-85.88-195.82-191.8 0-105.95 87.67-191.83 195.82-191.83 108.14 0 195.8 85.87 195.8 191.8z" stroke="#3a414a" stroke-width="3" fill="#fff"/><path d="M913.13 388.1a6 6 0 0 1 6-6h95.9a6 6 0 0 1 6 6v94a6 6 0 0 1-6 6h-95.9a6 6 0 0 1-6-6z" fill="none"/><use xlink:href="#d" transform="matrix(1,0,0,1,918.1285033894467,387.1025264469607) translate(0 64.5)"/><path d="M1274.14 836.98L1087 594.18" stroke="#000" stroke-width="9" fill="none"/><path d="M1280.74 838.17l-3.18 1.93-4.43 2.94-2.63-3.4 7.13-5.5zM1090.63 591.52l-7.13 5.5-2.9-3.78.5-.35 6.7-4.88.08-.06z" stroke="#000" stroke-width=".05"/><path d="M1580.5 1002.47c0 105.94-87.67 191.82-195.8 191.82-108.16 0-195.83-85.9-195.83-191.83 0-105.94 87.67-191.82 195.82-191.82 108.13 0 195.8 85.88 195.8 191.82z" stroke="#3a414a" stroke-width="3" fill="#fff"/><path d="M1330.74 955.47a6 6 0 0 1 6-6h95.9a6 6 0 0 1 6 6v94a6 6 0 0 1-6 6h-95.9a6 6 0 0 1-6-6z" fill="none"/><use xlink:href="#e" transform="matrix(1,0,0,1,1335.7372463034326,954.4655221948952) translate(0 64.5)"/><path d="M29.75 645.08l-133.3 219.8M29.7 645.18l2.38-3.95" stroke="#000" stroke-width="9" fill="none"/><path d="M-99.63 867.1l-1.9 3.13-2.03-.75-6.7-2.18 2.93-4.85z" stroke="#000" stroke-width=".05"/><path d="M30.4 1050.42c0 105.94-93.02 191.82-207.8 191.82-114.75 0-207.8-85.88-207.8-191.82 0-105.93 93.05-191.8 207.8-191.8 114.78 0 207.8 85.87 207.8 191.8z" stroke="#3a414a" stroke-width="3" fill="#fff"/><path d="M-231.34 1003.42a6 6 0 0 1 6-6h95.9a6 6 0 0 1 6 6v94a6 6 0 0 1-6 6h-95.9a6 6 0 0 1-6-6z" fill="none"/><use xlink:href="#f" transform="matrix(1,0,0,1,-226.33650689729808,1002.4197543203803) translate(0 64.5)"/><path d="M1678.8 1405.1l-176.63-241.8" stroke="#000" stroke-width="9" fill="none"/><path d="M1685.2 1406.2l-2.94 1.95-4.44 3.23-2.72-3.72 7.27-5.3zM1505.88 1160.74l-7.27 5.3-2.8-3.84 2.92-1.95 4.44-3.22z" stroke="#000" stroke-width=".05"/><path d="M1992.1 1565.93c0 105.94-87.66 191.82-195.8 191.82-108.15 0-195.82-85.88-195.82-191.82s87.67-191.8 195.8-191.8c108.16 0 195.83 85.86 195.83 191.8z" stroke="#3a414a" stroke-width="3" fill="#fff"/><path d="M1742.34 1518.93a6 6 0 0 1 6-6h95.9a6 6 0 0 1 6 6v94a6 6 0 0 1-6 6h-95.9a6 6 0 0 1-6-6z" fill="none"/><use xlink:href="#g" transform="matrix(1,0,0,1,1747.3444053805138,1517.927749669346) translate(0 64.5)"/><path d="M355.9 863.52l-63.75-232.26" stroke="#000" stroke-width="9" fill="none"/><path d="M361.5 866.94l-.53.1-8.23 1.75h-.05l-1.16-4.2 8.68-2.38z" stroke="#000" stroke-width=".05"/><path d="M292.18 631.38l-1.22-4.46" stroke="#000" stroke-width="9" fill="none"/><path d="M579.45 1022.76c0 87.18-80.52 157.85-179.83 157.85-99.32 0-179.83-70.66-179.83-157.84S300.3 864.9 399.6 864.9c99.31 0 179.83 70.68 179.83 157.86z" stroke="#3a414a" stroke-width="3" fill="#fff"/><path d="M345.67 975.75a6 6 0 0 1 6-6h95.9a6 6 0 0 1 6 6v94a6 6 0 0 1-6 6h-95.9a6 6 0 0 1-6-6z" fill="none"/><use xlink:href="#h" transform="matrix(1,0,0,1,350.6700899045389,974.7530142318543) translate(0 64.5)"/><path d="M847.7 594.06L799 841.43" stroke="#000" stroke-width="9" fill="none"/><path d="M849.66 590.5l2.92 2-.5 2.55-8.83-1.74 1.32-6.68zM803.45 842.2l-.63 3.2-3.4.28-5.98.76 1.18-6z" stroke="#000" stroke-width=".05"/><path d="M1010.82 1010.68c0 90.95-84.4 164.68-188.5 164.68s-188.48-73.73-188.48-164.68c0-90.96 84.4-164.7 188.5-164.7s188.48 73.74 188.48 164.7z" stroke="#3a414a" stroke-width="3" fill="#fff"/><path d="M772.88 963.67a6 6 0 0 1 6-6h86.9a6 6 0 0 1 6 6v94a6 6 0 0 1-6 6h-86.9a6 6 0 0 1-6-6z" fill="none"/><use xlink:href="#i" transform="matrix(1,0,0,1,777.8811102568104,962.6709464351889) translate(0 64.5)"/><defs><path fill="#3a414a" d="M233-177c-1 41-23 64-60 70L243 0h-38l-65-103H63V0H30v-248c88 3 205-21 203 71zM63-129c60-2 137 13 137-47 0-61-80-42-137-45v92" id="j"/><path fill="#3a414a" d="M141-36C126-15 110 5 73 4 37 3 15-17 15-53c-1-64 63-63 125-63 3-35-9-54-41-54-24 1-41 7-42 31l-33-3c5-37 33-52 76-52 45 0 72 20 72 64v82c-1 20 7 32 28 27v20c-31 9-61-2-59-35zM48-53c0 20 12 33 32 33 41-3 63-29 60-74-43 2-92-5-92 41" id="k"/><path fill="#3a414a" d="M24-231v-30h32v30H24zM24 0v-190h32V0H24" id="l"/><path fill="#3a414a" d="M9 0v-24l116-142H16v-24h144v24L44-24h123V0H9" id="m"/><g id="a"><use transform="matrix(0.1851851851851852,0,0,0.1851851851851852,0,0)" xlink:href="#j"/><use transform="matrix(0.1851851851851852,0,0,0.1851851851851852,47.96296296296297,0)" xlink:href="#k"/><use transform="matrix(0.1851851851851852,0,0,0.1851851851851852,85,0)" xlink:href="#l"/><use transform="matrix(0.1851851851851852,0,0,0.1851851851851852,99.62962962962963,0)" xlink:href="#m"/></g><path fill="#3a414a" d="M54-142c48-35 137-8 131 61C196 18 31 33 14-55l32-4c7 23 22 37 52 37 35-1 51-22 54-58 4-55-73-65-99-34H22l8-134h141v27H59" id="n"/><path fill="#3a414a" d="M101-251c68 0 85 55 85 127S166 4 100 4C33 4 14-52 14-124c0-73 17-127 87-127zm-1 229c47 0 54-49 54-102s-4-102-53-102c-51 0-55 48-55 102 0 53 5 102 54 102" id="o"/><g id="b"><use transform="matrix(0.1851851851851852,0,0,0.1851851851851852,0,0)" xlink:href="#n"/><use transform="matrix(0.1851851851851852,0,0,0.1851851851851852,37.03703703703704,0)" xlink:href="#o"/></g><path fill="#3a414a" d="M126-127c33 6 58 20 58 59 0 88-139 92-164 29-3-8-5-16-6-25l32-3c6 27 21 44 54 44 32 0 52-15 52-46 0-38-36-46-79-43v-28c39 1 72-4 72-42 0-27-17-43-46-43-28 0-47 15-49 41l-32-3c6-42 35-63 81-64 48-1 79 21 79 65 0 36-21 52-52 59" id="p"/><g id="c"><use transform="matrix(0.2222222222222222,0,0,0.2222222222222222,0,0)" xlink:href="#p"/><use transform="matrix(0.2222222222222222,0,0,0.2222222222222222,44.44444444444444,0)" xlink:href="#o"/></g><path fill="#3a414a" d="M64 0c3-98 48-159 88-221H18v-27h164v26C143-157 98-101 97 0H64" id="q"/><g id="d"><use transform="matrix(0.2222222222222222,0,0,0.2222222222222222,0,0)" xlink:href="#q"/><use transform="matrix(0.2222222222222222,0,0,0.2222222222222222,44.44444444444444,0)" xlink:href="#o"/></g><path fill="#3a414a" d="M134-131c28 9 52 24 51 62-1 50-34 73-85 73S17-19 16-69c0-36 21-54 49-61-75-25-45-126 34-121 46 3 78 18 79 63 0 33-17 51-44 57zm-34-11c31 1 46-15 46-44 0-28-17-43-47-42-29 0-46 13-45 42 1 28 16 44 46 44zm1 122c35 0 51-18 51-52 0-30-18-46-53-46-33 0-51 17-51 47 0 34 19 51 53 51" id="r"/><g id="e"><use transform="matrix(0.2222222222222222,0,0,0.2222222222222222,0,0)" xlink:href="#r"/><use transform="matrix(0.2222222222222222,0,0,0.2222222222222222,44.44444444444444,0)" xlink:href="#o"/></g><path fill="#3a414a" d="M27 0v-27h64v-190l-56 39v-29l58-41h29v221h61V0H27" id="s"/><g id="f"><use transform="matrix(0.2222222222222222,0,0,0.2222222222222222,0,0)" xlink:href="#s"/><use transform="matrix(0.2222222222222222,0,0,0.2222222222222222,44.44444444444444,0)" xlink:href="#o"/></g><path fill="#3a414a" d="M99-251c64 0 84 50 84 122C183-37 130 33 47-8c-14-7-20-23-25-40l30-5c6 39 69 39 84 7 9-19 16-44 16-74-10 22-31 35-62 35-49 0-73-33-73-83 0-54 28-83 82-83zm-1 141c31-1 51-18 51-49 0-36-14-67-51-67-34 0-49 23-49 58 0 34 15 58 49 58" id="t"/><g id="g"><use transform="matrix(0.2222222222222222,0,0,0.2222222222222222,0,0)" xlink:href="#t"/><use transform="matrix(0.2222222222222222,0,0,0.2222222222222222,44.44444444444444,0)" xlink:href="#o"/></g><path fill="#3a414a" d="M155-56V0h-30v-56H8v-25l114-167h33v167h35v25h-35zm-30-156c-27 46-58 90-88 131h88v-131" id="u"/><g id="h"><use transform="matrix(0.2222222222222222,0,0,0.2222222222222222,0,0)" xlink:href="#u"/><use transform="matrix(0.2222222222222222,0,0,0.2222222222222222,44.44444444444444,0)" xlink:href="#o"/></g><path fill="#3a414a" d="M110-160c48 1 74 30 74 79 0 53-28 85-80 85-65 0-83-55-86-122-5-90 50-162 133-122 14 7 22 21 27 39l-31 6c-5-40-67-38-82-6-9 19-15 44-15 74 11-20 30-34 60-33zm-7 138c34 0 49-23 49-58s-16-56-50-56c-29 0-50 16-49 49 1 36 15 65 50 65" id="v"/><g id="i"><use transform="matrix(0.2222222222222222,0,0,0.2222222222222222,0,0)" xlink:href="#v"/><use transform="matrix(0.2222222222222222,0,0,0.2222222222222222,44.44444444444444,0)" xlink:href="#o"/></g></defs></g></svg>